<?xml version="1.0" encoding="iso-8859-1"?>
<!-- Uploaded to: SVG Repo, www.svgrepo.com, Generator: SVG Repo Mixer Tools -->
<!DOCTYPE svg PUBLIC "-//W3C//DTD SVG 1.1//EN" "http://www.w3.org/Graphics/SVG/1.1/DTD/svg11.dtd">
<svg fill="#000000" height="800px" width="800px" version="1.1" id="Capa_1" xmlns="http://www.w3.org/2000/svg" xmlns:xlink="http://www.w3.org/1999/xlink" 
	 viewBox="0 0 95.009 95.009" xml:space="preserve">
<g>
	<path d="M47.505,21.672c5.975,0,10.835-4.861,10.835-10.836S53.479,0,47.505,0C41.53,0,36.668,4.861,36.668,10.836
		S41.53,21.672,47.505,21.672z"/>
	<path d="M82.201,10.78L80.922,8.93c-0.908-1.313-2.865-1.658-4.169-0.726l-22.381,16.01H40.637L18.256,8.204
		c-0.507-0.363-1.104-0.555-1.726-0.555c-0.976,0-1.889,0.479-2.443,1.281l-1.28,1.851c-0.935,1.354-0.608,3.233,0.73,4.191
		L36.09,31.103v26.054L30.6,70.18c-0.644,1.526-0.788,3.968-0.33,5.56l4.563,15.839c0.521,1.807,2.401,3.222,4.281,3.222h3.153
		c0.999,0,1.882-0.413,2.423-1.133c0.542-0.72,0.694-1.683,0.417-2.643l-4.563-15.839c-0.328-1.137-0.169-3.071,0.339-4.14
		l4.852-10.204h3.438l4.951,10.413c0.508,1.068,0.666,3.003,0.338,4.14L49.9,91.233c-0.276,0.96-0.124,1.923,0.418,2.643
		c0.542,0.72,1.425,1.132,2.423,1.132h3.153c1.88,0,3.76-1.415,4.281-3.222l4.563-15.839c0.46-1.597,0.294-4.038-0.378-5.558
		l-5.461-12.342c0.005-0.07,0.021-0.136,0.021-0.207V31.104l22.552-16.133C82.809,14.014,83.137,12.134,82.201,10.78z"/>
</g>
</svg>