<svg width="379" height="474" viewBox="0 0 379 474" fill="none" xmlns="http://www.w3.org/2000/svg">
<g clip-path="url(#clip0_75_55)">
<path fill-rule="evenodd" clip-rule="evenodd" d="M253.663 33.6644C253.663 17.2347 240.339 3.90356 223.918 3.90356C207.497 3.90356 194.173 17.2347 194.173 33.6644C194.173 50.0942 207.497 63.4249 223.918 63.4249C240.339 63.4249 253.663 50.0942 253.663 33.6644Z" fill="black"/>
<path fill-rule="evenodd" clip-rule="evenodd" d="M187.29 128.455V355.422C187.29 365.851 194.91 374.263 204.252 374.263C213.642 374.263 221.263 365.851 221.263 355.422V239.037C222.148 239.08 223.033 239.137 223.967 239.137C224.852 239.137 225.786 239.094 226.671 239.037V355.422C226.671 365.851 234.292 374.263 243.633 374.263C253.023 374.263 260.644 365.851 260.644 355.422V124.914C262.267 126.242 263.987 127.373 265.856 128.259V199.831C266.544 209.669 273.919 217.245 282.768 217.245C292.159 217.245 299.73 208.784 299.73 198.405V100.613C299.73 83.9372 287.587 70.4098 272.591 70.4098H175.343C174.949 70.4098 174.556 70.4097 174.212 70.4527H79.7167C69.2937 70.4528 60.8373 78.0284 60.8373 87.4238C60.8373 96.1306 68.1629 103.411 77.7501 104.296H148.154H187.29L187.29 128.455Z" fill="black"/>
</g>
<defs>
<clipPath id="clip0_75_55">
<rect width="379" height="474" fill="white" transform="matrix(-1 0 0 1 379 0)"/>
</clipPath>
</defs>
</svg>
