<svg xmlns:dc="http://purl.org/dc/elements/1.1/" xmlns:cc="http://creativecommons.org/ns#" xmlns:rdf="http://www.w3.org/1999/02/22-rdf-syntax-ns#" xmlns:svg="http://www.w3.org/2000/svg" xmlns="http://www.w3.org/2000/svg" xmlns:sodipodi="http://sodipodi.sourceforge.net/DTD/sodipodi-0.dtd" xmlns:inkscape="http://www.inkscape.org/namespaces/inkscape" viewBox="0 0 26.458333 33.0729175" version="1.1" x="0px" y="0px"><g transform="translate(0,-270.54165)"><path d="m 8.7499156,272.89055 c 0,-1.14637 0.930141,-2.07652 2.0765134,-2.07652 1.146373,0 2.076516,0.93015 2.076516,2.07652 0,1.14637 -0.930143,2.07652 -2.076516,2.07652 -1.1463724,0 -2.0765134,-0.93015 -2.0765134,-2.07652 z" style="" fill="#000000" fill-opacity="1" fill-rule="evenodd" stroke="none"/><path d="m 13.383461,279.5045 v 15.83642 c 0,0.72765 -0.532,1.31456 -1.184128,1.31456 -0.655562,0 -1.187562,-0.58691 -1.187562,-1.31456 v -8.12071 c -0.06178,0.003 -0.123561,0.007 -0.188774,0.007 -0.06178,0 -0.126993,-0.003 -0.188773,-0.007 v 8.12071 c 0,0.72765 -0.532,1.31456 -1.1841284,1.31456 -0.655561,0 -1.187561,-0.58691 -1.187561,-1.31456 v -16.08354 c -0.113264,0.0927 -0.233393,0.17161 -0.363818,0.23339 v 4.99394 c -0.04805,0.68644 -0.56289,1.21501 -1.180696,1.21501 -0.655562,0 -1.184128,-0.59034 -1.184128,-1.31455 v -6.82333 c 0,-1.16353 0.847766,-2.1074 1.894604,-2.1074 h 6.7890024 c 0.02746,0 0.05492,0 0.07894,0.003 h 6.596798 c 0.727638,10e-6 1.317986,0.52859 1.317986,1.18414 0,0.60751 -0.511407,1.11548 -1.180696,1.17726 h -4.914986 v 0 h -2.732076 z" style="" fill="#000000" fill-opacity="1" fill-rule="evenodd" stroke="none"/></g><text x="0" y="41.458334" fill="#000000" font-size="5px" font-weight="bold" font-family="'Helvetica Neue', Helvetica, Arial-Unicode, Arial, Sans-serif">Created by ebenweg</text><text x="0" y="46.458334" fill="#000000" font-size="5px" font-weight="bold" font-family="'Helvetica Neue', Helvetica, Arial-Unicode, Arial, Sans-serif">from the Noun Project</text></svg>