<svg width="80" height="80" viewBox="0 0 80 80" fill="none" xmlns="http://www.w3.org/2000/svg">
<path d="M58.912 22.0895C58.2602 20.9604 57.3006 20.0398 56.1454 19.4354C54.9901 18.831 53.6868 18.5675 52.3875 18.6758C51.0881 18.7841 49.8464 19.2596 48.8071 20.0469C47.7679 20.8343 46.9739 21.9009 46.5179 23.1224L41.0443 13.6417C40.3918 12.5108 39.4308 11.5892 38.2736 10.9847C37.1165 10.3802 35.8111 10.1177 34.5102 10.228C33.2093 10.3383 31.9667 10.8169 30.9279 11.6077C29.8891 12.3984 29.097 13.4687 28.6442 14.6933C27.7327 13.2523 26.3177 12.202 24.6745 11.7468C23.0314 11.2916 21.2776 11.464 19.7545 12.2306C18.2315 12.9971 17.0481 14.3029 16.4348 15.8938C15.8214 17.4847 15.8219 19.247 16.4361 20.8375C15.2512 20.8793 14.0972 21.2272 13.0866 21.8472C12.0759 22.4673 11.243 23.3384 10.6689 24.3758C10.0948 25.4132 9.79898 26.5816 9.81033 27.7673C9.82167 28.9529 10.1398 30.1154 10.7336 31.1417L12.4573 34.1272C11.1714 33.9113 9.85066 34.0655 8.64913 34.5718C7.4476 35.0782 6.41484 35.9158 5.67138 36.987C4.92792 38.0581 4.50441 39.3186 4.45027 40.6213C4.39612 41.9241 4.71358 43.2153 5.3656 44.3445L16.9281 64.3713C19.1878 68.2917 22.5211 71.4843 26.5352 73.5729C30.5493 75.6616 35.0768 76.5592 39.5841 76.1599C44.0914 75.7606 48.3907 74.0811 51.9751 71.3194C55.5595 68.5577 58.2797 64.8288 59.8151 60.5723C63.7401 56.9013 66.311 52.0128 67.1113 46.6985C67.9116 41.3842 66.8944 35.9553 64.2245 31.2912L58.912 22.0895ZM32.9028 13.2901C33.9081 12.7117 35.1018 12.5555 36.2221 12.8557C37.3424 13.1559 38.298 13.888 38.8794 14.8917L46.4435 27.993C45.1045 28.0612 43.8148 28.5199 42.7334 29.3123C41.652 30.1048 40.8262 31.1964 40.3578 32.4526L34.884 22.9718C34.1787 21.7494 33.1122 20.7756 31.8309 20.184L31.3025 19.2686L31.3016 19.2667C30.7228 18.2615 30.5663 17.0677 30.8665 15.9473C31.1666 14.8269 31.899 13.8713 32.9028 13.2901ZM18.6218 17.2415C18.8458 16.4057 19.3126 15.6551 19.9632 15.0846C20.6138 14.5141 21.4189 14.1494 22.2768 14.0364C23.1347 13.9235 24.0068 14.0675 24.7828 14.4502C25.5589 14.8329 26.204 15.4372 26.6366 16.1865L28.5785 19.5501C27.2354 19.6146 25.9411 20.0736 24.8574 20.8697C23.7738 21.6659 22.9489 22.7638 22.4858 24.0262C21.785 22.9161 20.7789 22.0316 19.5882 21.4787L19.0585 20.5615C18.7698 20.0645 18.5826 19.5151 18.5076 18.9453C18.4326 18.3754 18.4715 17.7963 18.6218 17.2415ZM48.1213 70.8993C43.2389 73.7105 37.4409 74.4704 31.999 73.0122C26.5571 71.5541 21.9157 67.997 19.093 63.1213L7.53051 43.0945C7.24288 42.5969 7.05611 42.0475 6.98088 41.4777C6.90565 40.9079 6.94342 40.3288 7.09204 39.7736C7.24066 39.2184 7.49722 38.6979 7.84706 38.2419C8.19689 37.7859 8.63315 37.4033 9.13091 37.1159C9.62867 36.8285 10.1782 36.6421 10.748 36.5671C11.3179 36.4922 11.8969 36.5303 12.452 36.6792C13.0071 36.8281 13.5275 37.0849 13.9833 37.435C14.4391 37.7851 14.8215 38.2216 15.1086 38.7195L22.6086 51.7099C22.6906 51.8523 22.7998 51.9772 22.93 52.0774C23.0603 52.1775 23.209 52.251 23.3677 52.2937C23.5263 52.3363 23.6919 52.3473 23.8548 52.3259C24.0177 52.3045 24.1748 52.2512 24.3171 52.169C24.4594 52.0869 24.5841 51.9775 24.684 51.8471C24.784 51.7167 24.8573 51.5679 24.8997 51.4091C24.9421 51.2504 24.9528 51.0848 24.9311 50.9219C24.9095 50.7591 24.8559 50.6021 24.7735 50.4599L12.8986 29.8917C12.6107 29.3941 12.4237 28.8446 12.3484 28.2747C12.273 27.7049 12.3106 27.1257 12.4592 26.5704C12.6077 26.0151 12.8643 25.4944 13.2141 25.0383C13.564 24.5822 14.0003 24.1995 14.4981 23.912C14.9959 23.6246 15.5455 23.4381 16.1155 23.3632C16.6854 23.2883 17.2646 23.3265 17.8198 23.4755C18.375 23.6245 18.8953 23.8815 19.3512 24.2317C19.807 24.5819 20.1894 25.0186 20.4764 25.5167L32.3514 46.0849C32.5172 46.3718 32.7902 46.5811 33.1103 46.6668C33.4305 46.7524 33.7715 46.7075 34.0585 46.5418C34.3455 46.3761 34.5549 46.1032 34.6408 45.7831C34.7266 45.463 34.6818 45.122 34.5163 44.8349L25.1413 28.5969C24.8534 28.0993 24.6665 27.5498 24.5911 26.9799C24.5157 26.41 24.5534 25.8308 24.7019 25.2755C24.8505 24.7202 25.107 24.1996 25.4568 23.7435C25.8067 23.2873 26.243 22.9046 26.7408 22.6172C27.2387 22.3298 27.7883 22.1433 28.3582 22.0684C28.9282 21.9935 29.5073 22.0316 30.0625 22.1806C30.6177 22.3296 31.1381 22.5866 31.5939 22.9368C32.0497 23.2871 32.4321 23.7237 32.7191 24.2218L45.8441 46.9549C46.0099 47.2418 46.2829 47.4511 46.6031 47.5368C46.9232 47.6225 47.2642 47.5775 47.5512 47.4118C47.8382 47.2461 48.0476 46.9732 48.1335 46.6532C48.2193 46.3331 48.1746 45.992 48.009 45.7049L43.009 37.0448C42.5764 36.2955 42.3756 35.4345 42.4322 34.571C42.4888 33.7076 42.8002 32.8803 43.327 32.1939C43.8537 31.5074 44.5722 30.9925 45.3916 30.7144C46.211 30.4363 47.0945 30.4074 47.9303 30.6314C48.0713 30.6692 48.2093 30.7134 48.3444 30.7642L48.3509 30.767C49.2945 31.1224 50.0851 31.7951 50.5868 32.6697L55.8993 41.8713C58.7107 46.7536 59.4707 52.5517 58.0125 57.9936C56.5544 63.4355 52.9972 68.0768 48.1213 70.8993ZM61.0632 55.3516C61.6941 50.246 60.6411 45.0739 58.0643 40.6213L52.7518 31.4197C52.0471 30.1952 50.9796 29.2198 49.6968 28.6281L49.1693 27.7147C48.5903 26.7099 48.4339 25.5161 48.7346 24.3961C49.0352 23.276 49.7682 22.3211 50.7726 21.7413C51.7769 21.1615 52.9703 21.0041 54.0906 21.3038C55.2109 21.6035 56.1664 22.3357 56.7471 23.3395L62.0596 32.5412C64.0659 36.0489 65.0371 40.0534 64.8608 44.0905C64.6844 48.1277 63.3677 52.0322 61.0632 55.3516ZM52.7631 8.02825L54.0573 3.19884C54.0998 3.0403 54.1731 2.89168 54.273 2.76146C54.3729 2.63124 54.4975 2.52198 54.6396 2.43991C54.7818 2.35785 54.9387 2.30458 55.1014 2.28315C55.2642 2.26173 55.4295 2.27257 55.5881 2.31505C55.7466 2.35753 55.8952 2.43082 56.0255 2.53074C56.1557 2.63066 56.2649 2.75525 56.347 2.89739C56.4291 3.03954 56.4823 3.19645 56.5038 3.35919C56.5252 3.52192 56.5143 3.68727 56.4719 3.84582L55.1776 8.67522C55.1352 8.83381 55.0619 8.98249 54.962 9.11276C54.8621 9.24304 54.7375 9.35235 54.5954 9.43446C54.4532 9.51657 54.2962 9.56987 54.1335 9.59131C53.9707 9.61276 53.8053 9.60192 53.6467 9.55943C53.4882 9.51694 53.3395 9.44363 53.2093 9.34368C53.079 9.24372 52.9698 9.11909 52.8877 8.9769C52.8056 8.83471 52.7524 8.67775 52.731 8.51498C52.7096 8.3522 52.7205 8.18681 52.7631 8.02825ZM60.8154 11.3043L63.6835 7.20855C63.7776 7.07409 63.8973 6.95949 64.0357 6.8713C64.1742 6.7831 64.3286 6.72304 64.4902 6.69453C64.6519 6.66602 64.8176 6.66963 64.9778 6.70515C65.1381 6.74067 65.2897 6.8074 65.4242 6.90154C65.5586 6.99568 65.6732 7.11538 65.7614 7.25381C65.8496 7.39223 65.9097 7.54668 65.9382 7.70832C65.9667 7.86996 65.9631 8.03563 65.9276 8.19588C65.8921 8.35613 65.8253 8.50781 65.7312 8.64226L62.8631 12.738C62.673 13.0096 62.3828 13.1945 62.0564 13.252C61.7299 13.3096 61.394 13.2352 61.1224 13.045C60.8509 12.8549 60.666 12.5647 60.6084 12.2383C60.5508 11.9118 60.6253 11.5759 60.8154 11.3043ZM72.7914 16.3165L68.6957 19.1846C68.5612 19.2787 68.4095 19.3454 68.2493 19.381C68.089 19.4165 67.9234 19.4201 67.7617 19.3916C67.6001 19.3631 67.4456 19.303 67.3072 19.2148C67.1688 19.1266 67.0491 19.012 66.9549 18.8776C66.8608 18.7431 66.7941 18.5914 66.7586 18.4312C66.723 18.2709 66.7194 18.1053 66.7479 17.9436C66.7764 17.782 66.8365 17.6275 66.9247 17.4891C67.0129 17.3507 67.1275 17.231 67.262 17.1368L71.3577 14.2688C71.4922 14.1747 71.6439 14.1079 71.8041 14.0724C71.9643 14.0369 72.13 14.0333 72.2917 14.0618C72.4533 14.0903 72.6077 14.1504 72.7462 14.2386C72.8846 14.3267 73.0043 14.4413 73.0984 14.5758C73.1926 14.7103 73.2593 14.8619 73.2948 15.0222C73.3304 15.1824 73.334 15.3481 73.3055 15.5097C73.2769 15.6714 73.2169 15.8258 73.1287 15.9643C73.0405 16.1027 72.9259 16.2224 72.7914 16.3165Z" fill="white" stroke="white"/>
</svg>
