<svg width="80" height="80" viewBox="0 0 80 80" fill="none" xmlns="http://www.w3.org/2000/svg">
<g clip-path="url(#clip0_13_53)">
<path d="M72.5 17.5H49.05C51.1475 15.6675 52.5 13.005 52.5 10C52.5 4.4775 48.0225 0 42.5 0C36.9775 0 32.5 4.4775 32.5 10C32.5 13.005 33.8525 15.6675 35.95 17.5H10C7.2375 17.5 5 19.7375 5 22.5C5 25.2625 7.2375 27.5 10 27.5H30V47.5375L8.2 69.3375C4.2625 73.275 7.055 80.005 12.6175 80.005C12.6225 80.005 12.6275 80.005 12.6325 80.005C14.285 80.0025 15.87 79.3425 17.0375 78.175L40.0675 55.145H42.5675L50 62.605V73.75C50 77.2025 52.7975 80 56.25 80C59.7025 80 62.5 77.2025 62.5 73.75V57.5L52.5 47.455V27.5H72.5C75.2625 27.5 77.5 25.2625 77.5 22.5C77.5 19.7375 75.2625 17.5 72.5 17.5ZM35 10C35 5.865 38.365 2.5 42.5 2.5C46.635 2.5 50 5.865 50 10C50 14.135 46.635 17.5 42.5 17.5C38.365 17.5 35 14.135 35 10ZM60 73.75C60 75.8175 58.3175 77.5 56.25 77.5C54.1825 77.5 52.5 75.8175 52.5 73.75V61.5725L43.6075 52.645H39.0325L15.27 76.4075C14.565 77.1125 13.625 77.5025 12.6175 77.505C11.05 77.505 9.755 76.64 9.155 75.19C8.555 73.74 8.8575 72.2125 9.9675 71.105L33.5725 47.5H49.0175L60 58.5325V73.75ZM72.5 25H50V45H32.5V25H10C8.6225 25 7.5 23.8775 7.5 22.5C7.5 21.1225 8.6225 20 10 20H72.5C73.8775 20 75 21.1225 75 22.5C75 23.8775 73.8775 25 72.5 25Z" fill="white" stroke="white"/>
</g>
<defs>
<clipPath id="clip0_13_53">
<rect width="80" height="80" fill="white"/>
</clipPath>
</defs>
</svg>
