<svg width="60" height="60" viewBox="0 0 60 60" fill="none" xmlns="http://www.w3.org/2000/svg">
<g clip-path="url(#clip0_13_56)">
<path fill-rule="evenodd" clip-rule="evenodd" d="M55.04 42.268L53.056 45.732C52.508 46.69 51.296 47.016 50.346 46.464L44.836 43.256C42.04 46.438 38.258 48.718 33.966 49.598V54C33.966 55.106 33.08 56 31.984 56H28.016C26.92 56 26.034 55.106 26.034 54V49.598C21.742 48.718 17.96 46.438 15.164 43.256L9.65401 46.464C8.70401 47.016 7.492 46.69 6.944 45.732L4.96001 42.268C4.41201 41.312 4.73801 40.088 5.68601 39.538L11.218 36.314C10.56 34.326 10.166 32.212 10.166 30C10.166 27.788 10.56 25.676 11.218 23.686L5.68601 20.464C4.73801 19.912 4.41201 18.69 4.96001 17.732L6.944 14.268C7.492 13.312 8.70401 12.984 9.65401 13.536L15.164 16.744C17.96 13.562 21.742 11.282 26.034 10.402V6C26.034 4.894 26.92 4 28.016 4H31.984C33.08 4 33.966 4.894 33.966 6V10.402C38.258 11.282 42.04 13.562 44.836 16.744L50.346 13.536C51.296 12.984 52.508 13.312 53.056 14.268L55.04 17.732C55.588 18.69 55.262 19.912 54.314 20.464L48.782 23.686C49.44 25.676 49.834 27.788 49.834 30C49.834 32.212 49.44 34.326 48.782 36.314L54.314 39.538C55.262 40.088 55.588 41.312 55.04 42.268ZM58.016 37.072L53.37 34.368C53.63 32.948 53.802 31.498 53.802 30C53.802 28.504 53.63 27.052 53.37 25.632L58.016 22.928C59.914 21.824 60.562 19.376 59.466 17.464L55.5 10.536C54.406 8.62401 51.978 7.96602 50.082 9.07202L45.388 11.802C43.196 9.922 40.704 8.38398 37.934 7.39398V4C37.934 1.792 36.158 0 33.966 0H26.034C23.842 0 22.066 1.792 22.066 4V7.39398C19.296 8.38398 16.804 9.922 14.612 11.802L9.918 9.07202C8.022 7.96602 5.594 8.62401 4.5 10.536L0.533997 17.464C-0.562003 19.376 0.0879935 21.824 1.98399 22.928L6.63001 25.632C6.37001 27.052 6.198 28.504 6.198 30C6.198 31.498 6.37001 32.948 6.63001 34.368L1.98399 37.072C0.0879935 38.176 -0.562003 40.624 0.533997 42.536L4.5 49.464C5.594 51.376 8.022 52.034 9.918 50.928L14.612 48.198C16.804 50.078 19.296 51.618 22.066 52.606V56C22.066 58.208 23.842 60 26.034 60H33.966C36.158 60 37.934 58.208 37.934 56V52.606C40.704 51.618 43.196 50.078 45.388 48.198L50.082 50.928C51.978 52.034 54.406 51.376 55.5 49.464L59.466 42.536C60.562 40.624 59.914 38.176 58.016 37.072ZM30 36C26.714 36 24.05 33.314 24.05 30C24.05 26.688 26.714 24 30 24C33.286 24 35.95 26.688 35.95 30C35.95 33.314 33.286 36 30 36ZM30 20C24.522 20 20.084 24.476 20.084 30C20.084 35.524 24.522 40 30 40C35.478 40 39.918 35.524 39.918 30C39.918 24.476 35.478 20 30 20Z" fill="white"/>
</g>
<defs>
<clipPath id="clip0_13_56">
<rect width="60" height="60" fill="white"/>
</clipPath>
</defs>
</svg>
